<mxfile host="app.diagrams.net" modified="2022-09-08T22:01:54.622Z" agent="5.0 (X11)" etag="sdcpOHtEPgof_RQwW44V" version="20.3.0" type="github">
  <diagram id="jy6cDKCAjOVsu_4QMrVE" name="Page-1">
    <mxGraphModel dx="942" dy="551" grid="1" gridSize="10" guides="1" tooltips="1" connect="1" arrows="1" fold="1" page="1" pageScale="1" pageWidth="827" pageHeight="1169" math="0" shadow="0">
      <root>
        <mxCell id="0" />
        <mxCell id="1" parent="0" />
        <mxCell id="r3nEOo71iXhfzzqYjHbu-1" value="Household" style="rounded=0;whiteSpace=wrap;html=1;fillColor=#f8cecc;strokeColor=#b85450;" parent="1" vertex="1">
          <mxGeometry x="20" y="60" width="120" height="60" as="geometry" />
        </mxCell>
        <mxCell id="r3nEOo71iXhfzzqYjHbu-2" value="&lt;div&gt;Government&lt;/div&gt;" style="whiteSpace=wrap;html=1;fillColor=#f8cecc;strokeColor=#b85450;" parent="1" vertex="1">
          <mxGeometry x="190" y="380" width="120" height="60" as="geometry" />
        </mxCell>
        <mxCell id="r3nEOo71iXhfzzqYjHbu-3" value="&lt;div&gt;Non-export sector firm&lt;br&gt;&lt;/div&gt;" style="whiteSpace=wrap;html=1;fillColor=#f8cecc;strokeColor=#b85450;" parent="1" vertex="1">
          <mxGeometry x="520" y="190" width="120" height="60" as="geometry" />
        </mxCell>
        <mxCell id="r3nEOo71iXhfzzqYjHbu-4" value="&lt;div&gt;Export sector firm&lt;/div&gt;" style="whiteSpace=wrap;html=1;fillColor=#f8cecc;strokeColor=#b85450;" parent="1" vertex="1">
          <mxGeometry x="400" y="480" width="120" height="60" as="geometry" />
        </mxCell>
        <mxCell id="r3nEOo71iXhfzzqYjHbu-5" value="&lt;div&gt;External world&lt;/div&gt;" style="whiteSpace=wrap;html=1;fillColor=#f8cecc;strokeColor=#b85450;" parent="1" vertex="1">
          <mxGeometry x="630" y="30" width="120" height="60" as="geometry" />
        </mxCell>
        <mxCell id="r3nEOo71iXhfzzqYjHbu-6" value="Labor market" style="rounded=1;whiteSpace=wrap;html=1;fillColor=#ffe6cc;strokeColor=#d79b00;" parent="1" vertex="1">
          <mxGeometry x="190" y="240" width="120" height="60" as="geometry" />
        </mxCell>
        <mxCell id="r3nEOo71iXhfzzqYjHbu-8" value="&lt;div&gt;Final goods market&lt;/div&gt;" style="rounded=1;whiteSpace=wrap;html=1;fillColor=#ffe6cc;strokeColor=#d79b00;" parent="1" vertex="1">
          <mxGeometry x="250" y="80" width="120" height="60" as="geometry" />
        </mxCell>
        <mxCell id="r3nEOo71iXhfzzqYjHbu-9" value="Intermediate goods market" style="rounded=1;whiteSpace=wrap;html=1;fillColor=#ffe6cc;strokeColor=#d79b00;" parent="1" vertex="1">
          <mxGeometry x="470" y="90" width="120" height="60" as="geometry" />
        </mxCell>
        <mxCell id="r3nEOo71iXhfzzqYjHbu-10" value="Assets market" style="rounded=1;whiteSpace=wrap;html=1;labelBackgroundColor=none;fillColor=#ffe6cc;strokeColor=#d79b00;" parent="1" vertex="1">
          <mxGeometry x="500" y="330" width="120" height="60" as="geometry" />
        </mxCell>
        <mxCell id="r3nEOo71iXhfzzqYjHbu-15" value="" style="endArrow=classic;html=1;exitX=0;exitY=0.5;exitDx=0;exitDy=0;entryX=1;entryY=0.5;entryDx=0;entryDy=0;curved=1;" parent="1" source="r3nEOo71iXhfzzqYjHbu-8" target="r3nEOo71iXhfzzqYjHbu-1" edge="1">
          <mxGeometry relative="1" as="geometry">
            <mxPoint x="140" y="140" as="sourcePoint" />
            <mxPoint x="240" y="140" as="targetPoint" />
            <Array as="points" />
          </mxGeometry>
        </mxCell>
        <mxCell id="r3nEOo71iXhfzzqYjHbu-16" value="C" style="edgeLabel;resizable=0;html=1;align=center;verticalAlign=middle;fontSize=15;" parent="r3nEOo71iXhfzzqYjHbu-15" connectable="0" vertex="1">
          <mxGeometry relative="1" as="geometry">
            <mxPoint x="-5" as="offset" />
          </mxGeometry>
        </mxCell>
        <mxCell id="r3nEOo71iXhfzzqYjHbu-18" value="" style="endArrow=classic;html=1;rounded=0;entryX=0.574;entryY=1.023;entryDx=0;entryDy=0;exitX=0.446;exitY=-0.003;exitDx=0;exitDy=0;entryPerimeter=0;exitPerimeter=0;" parent="1" source="r3nEOo71iXhfzzqYjHbu-3" target="r3nEOo71iXhfzzqYjHbu-9" edge="1">
          <mxGeometry relative="1" as="geometry">
            <mxPoint x="364" y="49.5" as="sourcePoint" />
            <mxPoint x="464" y="49.5" as="targetPoint" />
            <Array as="points" />
          </mxGeometry>
        </mxCell>
        <mxCell id="r3nEOo71iXhfzzqYjHbu-19" value="Y&lt;sup&gt;N&lt;/sup&gt;" style="edgeLabel;resizable=0;html=1;align=center;verticalAlign=middle;" parent="r3nEOo71iXhfzzqYjHbu-18" connectable="0" vertex="1">
          <mxGeometry relative="1" as="geometry" />
        </mxCell>
        <mxCell id="r3nEOo71iXhfzzqYjHbu-20" value="" style="endArrow=classic;html=1;rounded=0;exitX=0;exitY=0.25;exitDx=0;exitDy=0;entryX=1;entryY=0.5;entryDx=0;entryDy=0;" parent="1" source="r3nEOo71iXhfzzqYjHbu-9" target="r3nEOo71iXhfzzqYjHbu-8" edge="1">
          <mxGeometry relative="1" as="geometry">
            <mxPoint x="320" y="160" as="sourcePoint" />
            <mxPoint x="420" y="160" as="targetPoint" />
          </mxGeometry>
        </mxCell>
        <mxCell id="r3nEOo71iXhfzzqYjHbu-21" value="&lt;div&gt;Y&lt;sup&gt;N&lt;/sup&gt; - Gov&lt;/div&gt;" style="edgeLabel;resizable=0;html=1;align=center;verticalAlign=middle;" parent="r3nEOo71iXhfzzqYjHbu-20" connectable="0" vertex="1">
          <mxGeometry relative="1" as="geometry" />
        </mxCell>
        <mxCell id="r3nEOo71iXhfzzqYjHbu-22" value="" style="endArrow=classic;html=1;exitX=0.5;exitY=1;exitDx=0;exitDy=0;entryX=0;entryY=0.5;entryDx=0;entryDy=0;curved=1;" parent="1" source="r3nEOo71iXhfzzqYjHbu-1" target="r3nEOo71iXhfzzqYjHbu-6" edge="1">
          <mxGeometry relative="1" as="geometry">
            <mxPoint x="120" y="200" as="sourcePoint" />
            <mxPoint x="220" y="200" as="targetPoint" />
            <Array as="points">
              <mxPoint x="130" y="210" />
            </Array>
          </mxGeometry>
        </mxCell>
        <mxCell id="r3nEOo71iXhfzzqYjHbu-23" value="L" style="edgeLabel;resizable=0;html=1;align=center;verticalAlign=middle;" parent="r3nEOo71iXhfzzqYjHbu-22" connectable="0" vertex="1">
          <mxGeometry relative="1" as="geometry">
            <mxPoint x="6" y="-12" as="offset" />
          </mxGeometry>
        </mxCell>
        <mxCell id="r3nEOo71iXhfzzqYjHbu-24" value="" style="endArrow=classic;html=1;exitX=1;exitY=0.25;exitDx=0;exitDy=0;curved=1;" parent="1" source="r3nEOo71iXhfzzqYjHbu-6" target="r3nEOo71iXhfzzqYjHbu-3" edge="1">
          <mxGeometry relative="1" as="geometry">
            <mxPoint x="380" y="230" as="sourcePoint" />
            <mxPoint x="480" y="230" as="targetPoint" />
            <Array as="points">
              <mxPoint x="430" y="200" />
            </Array>
          </mxGeometry>
        </mxCell>
        <mxCell id="r3nEOo71iXhfzzqYjHbu-25" value="&lt;div&gt;L&lt;sup&gt;N&lt;/sup&gt;&lt;/div&gt;" style="edgeLabel;resizable=0;html=1;align=center;verticalAlign=middle;" parent="r3nEOo71iXhfzzqYjHbu-24" connectable="0" vertex="1">
          <mxGeometry relative="1" as="geometry">
            <mxPoint y="10" as="offset" />
          </mxGeometry>
        </mxCell>
        <mxCell id="r3nEOo71iXhfzzqYjHbu-26" value="" style="endArrow=classic;html=1;rounded=0;exitX=1;exitY=1;exitDx=0;exitDy=0;" parent="1" target="r3nEOo71iXhfzzqYjHbu-4" edge="1" source="r3nEOo71iXhfzzqYjHbu-6">
          <mxGeometry relative="1" as="geometry">
            <mxPoint x="350" y="278.48" as="sourcePoint" />
            <mxPoint x="520" y="260.00173913043477" as="targetPoint" />
          </mxGeometry>
        </mxCell>
        <mxCell id="r3nEOo71iXhfzzqYjHbu-27" value="&lt;div&gt;L&lt;sup&gt;E&lt;/sup&gt;&lt;/div&gt;" style="edgeLabel;resizable=0;html=1;align=center;verticalAlign=middle;" parent="r3nEOo71iXhfzzqYjHbu-26" connectable="0" vertex="1">
          <mxGeometry relative="1" as="geometry" />
        </mxCell>
        <mxCell id="r3nEOo71iXhfzzqYjHbu-28" value="" style="endArrow=classic;html=1;rounded=0;entryX=0.459;entryY=1.04;entryDx=0;entryDy=0;entryPerimeter=0;exitX=0.5;exitY=0;exitDx=0;exitDy=0;" parent="1" source="r3nEOo71iXhfzzqYjHbu-10" target="r3nEOo71iXhfzzqYjHbu-3" edge="1">
          <mxGeometry relative="1" as="geometry">
            <mxPoint x="520" y="290" as="sourcePoint" />
            <mxPoint x="620" y="290" as="targetPoint" />
          </mxGeometry>
        </mxCell>
        <mxCell id="r3nEOo71iXhfzzqYjHbu-29" value="K&lt;sup&gt;N&lt;/sup&gt;" style="edgeLabel;resizable=0;html=1;align=center;verticalAlign=middle;" parent="r3nEOo71iXhfzzqYjHbu-28" connectable="0" vertex="1">
          <mxGeometry relative="1" as="geometry" />
        </mxCell>
        <mxCell id="r3nEOo71iXhfzzqYjHbu-30" value="" style="endArrow=classic;html=1;rounded=0;entryX=0.667;entryY=0;entryDx=0;entryDy=0;entryPerimeter=0;exitX=0.002;exitY=0.608;exitDx=0;exitDy=0;exitPerimeter=0;" parent="1" source="r3nEOo71iXhfzzqYjHbu-10" target="r3nEOo71iXhfzzqYjHbu-4" edge="1">
          <mxGeometry relative="1" as="geometry">
            <mxPoint x="447.46000000000004" y="390" as="sourcePoint" />
            <mxPoint x="452.5400000000001" y="312.4" as="targetPoint" />
          </mxGeometry>
        </mxCell>
        <mxCell id="r3nEOo71iXhfzzqYjHbu-31" value="K&lt;sup&gt;E&lt;/sup&gt;" style="edgeLabel;resizable=0;html=1;align=center;verticalAlign=middle;" parent="r3nEOo71iXhfzzqYjHbu-30" connectable="0" vertex="1">
          <mxGeometry relative="1" as="geometry" />
        </mxCell>
        <mxCell id="r3nEOo71iXhfzzqYjHbu-39" value="" style="endArrow=classic;html=1;entryX=0.5;entryY=1;entryDx=0;entryDy=0;exitX=1;exitY=0;exitDx=0;exitDy=0;curved=1;" parent="1" source="r3nEOo71iXhfzzqYjHbu-10" target="r3nEOo71iXhfzzqYjHbu-5" edge="1">
          <mxGeometry relative="1" as="geometry">
            <mxPoint x="630" y="360" as="sourcePoint" />
            <mxPoint x="730" y="400" as="targetPoint" />
            <Array as="points">
              <mxPoint x="670" y="220" />
            </Array>
          </mxGeometry>
        </mxCell>
        <mxCell id="r3nEOo71iXhfzzqYjHbu-40" value="CF" style="edgeLabel;resizable=0;html=1;align=center;verticalAlign=middle;" parent="r3nEOo71iXhfzzqYjHbu-39" connectable="0" vertex="1">
          <mxGeometry relative="1" as="geometry">
            <mxPoint x="-11" as="offset" />
          </mxGeometry>
        </mxCell>
        <mxCell id="r3nEOo71iXhfzzqYjHbu-41" value="" style="endArrow=classic;html=1;rounded=0;entryX=1;entryY=0.5;entryDx=0;entryDy=0;" parent="1" source="r3nEOo71iXhfzzqYjHbu-9" target="r3nEOo71iXhfzzqYjHbu-2" edge="1">
          <mxGeometry relative="1" as="geometry">
            <mxPoint x="350" y="180" as="sourcePoint" />
            <mxPoint x="450" y="180" as="targetPoint" />
            <Array as="points">
              <mxPoint x="400" y="280" />
            </Array>
          </mxGeometry>
        </mxCell>
        <mxCell id="r3nEOo71iXhfzzqYjHbu-42" value="Gov" style="edgeLabel;resizable=0;html=1;align=center;verticalAlign=middle;" parent="r3nEOo71iXhfzzqYjHbu-41" connectable="0" vertex="1">
          <mxGeometry relative="1" as="geometry">
            <mxPoint x="84" y="-102" as="offset" />
          </mxGeometry>
        </mxCell>
        <mxCell id="r3nEOo71iXhfzzqYjHbu-43" value="" style="endArrow=classic;html=1;exitX=0;exitY=0.25;exitDx=0;exitDy=0;entryX=1;entryY=0.75;entryDx=0;entryDy=0;curved=1;" parent="1" source="r3nEOo71iXhfzzqYjHbu-10" target="r3nEOo71iXhfzzqYjHbu-2" edge="1">
          <mxGeometry relative="1" as="geometry">
            <mxPoint x="430" y="380" as="sourcePoint" />
            <mxPoint x="530" y="380" as="targetPoint" />
            <Array as="points">
              <mxPoint x="450" y="330" />
              <mxPoint x="390" y="340" />
              <mxPoint x="340" y="360" />
            </Array>
          </mxGeometry>
        </mxCell>
        <mxCell id="r3nEOo71iXhfzzqYjHbu-44" value="Debt" style="edgeLabel;resizable=0;html=1;align=center;verticalAlign=middle;" parent="r3nEOo71iXhfzzqYjHbu-43" connectable="0" vertex="1">
          <mxGeometry relative="1" as="geometry" />
        </mxCell>
        <mxCell id="r3nEOo71iXhfzzqYjHbu-45" value="" style="endArrow=classic;html=1;entryX=0.183;entryY=0.01;entryDx=0;entryDy=0;entryPerimeter=0;exitX=1;exitY=1;exitDx=0;exitDy=0;curved=1;" parent="1" source="r3nEOo71iXhfzzqYjHbu-1" target="r3nEOo71iXhfzzqYjHbu-10" edge="1">
          <mxGeometry relative="1" as="geometry">
            <mxPoint x="60" y="210" as="sourcePoint" />
            <mxPoint x="160" y="210" as="targetPoint" />
            <Array as="points">
              <mxPoint x="360" y="200" />
            </Array>
          </mxGeometry>
        </mxCell>
        <mxCell id="r3nEOo71iXhfzzqYjHbu-46" value="A" style="edgeLabel;resizable=0;html=1;align=center;verticalAlign=middle;" parent="r3nEOo71iXhfzzqYjHbu-45" connectable="0" vertex="1">
          <mxGeometry relative="1" as="geometry">
            <mxPoint x="-18" y="4" as="offset" />
          </mxGeometry>
        </mxCell>
        <mxCell id="r3nEOo71iXhfzzqYjHbu-47" value="" style="endArrow=classic;html=1;exitX=1.012;exitY=0.407;exitDx=0;exitDy=0;exitPerimeter=0;entryX=0.75;entryY=1;entryDx=0;entryDy=0;curved=1;" parent="1" source="r3nEOo71iXhfzzqYjHbu-4" target="r3nEOo71iXhfzzqYjHbu-5" edge="1">
          <mxGeometry relative="1" as="geometry">
            <mxPoint x="580" y="439.52" as="sourcePoint" />
            <mxPoint x="680" y="439.52" as="targetPoint" />
            <Array as="points">
              <mxPoint x="700" y="450" />
            </Array>
          </mxGeometry>
        </mxCell>
        <mxCell id="r3nEOo71iXhfzzqYjHbu-48" value="Y&lt;sup&gt;E&lt;/sup&gt;" style="edgeLabel;resizable=0;html=1;align=center;verticalAlign=middle;" parent="r3nEOo71iXhfzzqYjHbu-47" connectable="0" vertex="1">
          <mxGeometry relative="1" as="geometry">
            <mxPoint x="-14" y="-63" as="offset" />
          </mxGeometry>
        </mxCell>
        <mxCell id="r3nEOo71iXhfzzqYjHbu-49" value="" style="endArrow=classic;html=1;entryX=1;entryY=0;entryDx=0;entryDy=0;exitX=0;exitY=0.5;exitDx=0;exitDy=0;curved=1;" parent="1" source="r3nEOo71iXhfzzqYjHbu-5" target="r3nEOo71iXhfzzqYjHbu-8" edge="1">
          <mxGeometry relative="1" as="geometry">
            <mxPoint x="640" y="280" as="sourcePoint" />
            <mxPoint x="740" y="280" as="targetPoint" />
            <Array as="points">
              <mxPoint x="510" y="50" />
            </Array>
          </mxGeometry>
        </mxCell>
        <mxCell id="r3nEOo71iXhfzzqYjHbu-50" value="M" style="edgeLabel;resizable=0;html=1;align=center;verticalAlign=middle;" parent="r3nEOo71iXhfzzqYjHbu-49" connectable="0" vertex="1">
          <mxGeometry relative="1" as="geometry">
            <mxPoint x="11" y="8" as="offset" />
          </mxGeometry>
        </mxCell>
        <mxCell id="A6kvcBWrdAsPII1lX4vL-1" value="" style="endArrow=classic;html=1;exitX=0.5;exitY=1;exitDx=0;exitDy=0;entryX=0.5;entryY=0;entryDx=0;entryDy=0;curved=1;" edge="1" parent="1" source="r3nEOo71iXhfzzqYjHbu-8" target="r3nEOo71iXhfzzqYjHbu-4">
          <mxGeometry relative="1" as="geometry">
            <mxPoint x="380" y="160" as="sourcePoint" />
            <mxPoint x="270" y="140" as="targetPoint" />
            <Array as="points">
              <mxPoint x="410" y="300" />
            </Array>
          </mxGeometry>
        </mxCell>
        <mxCell id="A6kvcBWrdAsPII1lX4vL-2" value="&lt;font style=&quot;font-size: 11px;&quot;&gt;I^E&lt;/font&gt;" style="edgeLabel;resizable=0;html=1;align=center;verticalAlign=middle;fontSize=15;" connectable="0" vertex="1" parent="A6kvcBWrdAsPII1lX4vL-1">
          <mxGeometry relative="1" as="geometry">
            <mxPoint x="-80" y="-129" as="offset" />
          </mxGeometry>
        </mxCell>
        <mxCell id="A6kvcBWrdAsPII1lX4vL-4" value="" style="endArrow=classic;html=1;exitX=0.5;exitY=1;exitDx=0;exitDy=0;entryX=0;entryY=0.75;entryDx=0;entryDy=0;curved=1;" edge="1" parent="1" target="r3nEOo71iXhfzzqYjHbu-3">
          <mxGeometry relative="1" as="geometry">
            <mxPoint x="339" y="140" as="sourcePoint" />
            <mxPoint x="489" y="480" as="targetPoint" />
            <Array as="points">
              <mxPoint x="439" y="300" />
            </Array>
          </mxGeometry>
        </mxCell>
        <mxCell id="A6kvcBWrdAsPII1lX4vL-5" value="&lt;font style=&quot;font-size: 11px;&quot;&gt;I^N&lt;/font&gt;" style="edgeLabel;resizable=0;html=1;align=center;verticalAlign=middle;fontSize=15;" connectable="0" vertex="1" parent="A6kvcBWrdAsPII1lX4vL-4">
          <mxGeometry relative="1" as="geometry">
            <mxPoint x="-46" y="-84" as="offset" />
          </mxGeometry>
        </mxCell>
      </root>
    </mxGraphModel>
  </diagram>
</mxfile>
